<svg width="30" height="30" viewBox="0 0 30 30" fill="none" xmlns="http://www.w3.org/2000/svg">
<path d="M29.969 14.9845C29.969 6.7065 23.2569 0 14.9845 0C6.7065 0 0 6.7065 0 14.9845C0 22.4618 5.47777 28.6616 12.6432 29.7845V19.3169H8.83805V14.9854H12.6432V11.6823C12.6432 7.92774 14.8768 5.85426 18.3008 5.85426C19.9406 5.85426 21.6573 6.14646 21.6573 6.14646V9.83358H19.7646C17.9065 9.83358 17.3258 10.9902 17.3258 12.1749V14.9845H21.4812L20.8135 19.316H17.3258V29.7836C24.4856 28.6607 29.969 22.4608 29.969 14.9836V14.9845Z" fill="#314BF1"/>
</svg>
