<svg width="31" height="31" viewBox="0 0 31 31" fill="none" xmlns="http://www.w3.org/2000/svg">
<path d="M24.2281 18.0171C23.7889 19.5449 22.9185 20.9136 21.7212 21.9593C20.5238 23.0049 19.0504 23.6832 17.4774 23.9127C16.2473 24.0911 14.9939 24.0192 13.7923 23.7012C12.5907 23.3832 11.4657 22.8256 10.485 22.0621C9.50424 21.2985 8.68789 20.3446 8.08496 19.2576C7.48203 18.1707 7.10495 16.9732 6.97635 15.7369C6.87674 14.4957 7.03571 13.2474 7.44323 12.0709C7.85075 10.8943 8.49794 9.8151 9.34389 8.90147C10.1898 7.98784 11.2162 7.25967 12.3579 6.76298C13.4997 6.2663 14.7321 6.01191 15.9772 6.0159C17.144 6.01754 18.2997 6.24156 19.3826 6.67597C19.5531 6.75252 19.746 6.76265 19.9236 6.70438C20.1012 6.64611 20.2507 6.52363 20.3427 6.36094L22.5029 2.38554C22.5494 2.29398 22.5774 2.19413 22.5852 2.09173C22.593 1.98933 22.5805 1.8864 22.5485 1.78884C22.5164 1.69127 22.4654 1.601 22.3984 1.52319C22.3313 1.44539 22.2496 1.38158 22.1579 1.33544C19.8382 0.285203 17.2894 -0.157298 14.7515 0.0496132C12.2136 0.256524 9.7701 1.10604 7.6512 2.51814C5.53229 3.93024 3.8077 5.85846 2.63984 8.12118C1.47199 10.3839 0.899316 12.9067 0.975757 15.4518C1.12359 19.2321 2.67749 22.8209 5.33306 25.5153C7.98862 28.2097 11.5545 29.8156 15.3322 30.0183C19.2895 30.1938 23.1555 28.797 26.0868 26.1327C29.0181 23.4684 30.7766 19.7529 30.9787 15.7969C30.9787 15.4968 30.9787 13.7717 30.9787 12.7966C30.9749 12.5988 30.8946 12.4103 30.7548 12.2704C30.615 12.1306 30.4264 12.0503 30.2287 12.0465H16.7273C16.5284 12.0465 16.3376 12.1255 16.1969 12.2662C16.0563 12.4069 15.9772 12.5976 15.9772 12.7966V17.297C15.9772 17.496 16.0563 17.6867 16.1969 17.8274C16.3376 17.9681 16.5284 18.0471 16.7273 18.0471H24.2281" fill="#314BF1"/>
</svg>
