<svg width="27" height="30" viewBox="0 0 27 30" fill="none" xmlns="http://www.w3.org/2000/svg">
<path d="M14.5689 0.0248201C16.1946 0 17.8079 0.0124101 19.4212 0C19.5205 1.89874 20.2031 3.83471 21.593 5.175C22.9829 6.55251 24.9437 7.18542 26.8549 7.3964V12.3976C25.0678 12.3356 23.2683 11.9633 21.6426 11.1939C20.9353 10.8712 20.2775 10.4617 19.6322 10.0397C19.6198 13.6635 19.6446 17.2872 19.6074 20.8985C19.5081 22.636 18.9372 24.3609 17.932 25.7881C16.3063 28.1708 13.4892 29.7221 10.5977 29.7717C8.82304 29.871 7.0484 29.387 5.53437 28.4935C3.02754 27.0167 1.26531 24.3113 1.0047 21.4074C0.979879 20.7868 0.967469 20.1663 0.992289 19.5583C1.21567 17.2003 2.38222 14.9417 4.19408 13.4029C6.25415 11.6158 9.13329 10.7595 11.8263 11.2683C11.8511 13.105 11.7766 14.9417 11.7766 16.7784C10.548 16.3813 9.10847 16.493 8.02879 17.2376C7.24696 17.7464 6.65128 18.5282 6.34102 19.4093C6.08041 20.0422 6.15487 20.7372 6.16728 21.4074C6.46513 23.4426 8.42592 25.1552 10.5108 24.969C11.9007 24.9566 13.2286 24.15 13.9484 22.971C14.1842 22.5615 14.4448 22.1395 14.4572 21.6556C14.5813 19.4342 14.5317 17.2252 14.5441 15.0038C14.5565 10.0025 14.5317 5.01366 14.5689 0.0248201Z" fill="#314BF1"/>
</svg>
